<!-- Creater                 : nlviewTK -->
<!-- DocumentNeededResources : font  Helvetica -->

<svg xmlns="http://www.w3.org/2000/svg" version="1.1" width="794.10" height="614.10" style="background:rgb(99.61%,99.61%,99.61%)">
	<title> first </title>
	<defs>
		<!--Clipping simply refers to cutting off the edges of an image that doesn't fit inside a given area.-->
		<clipPath id="clipPath1">
			<path d="M 27.70,27.70 27.70,584.20 764.20,584.20 764.20,27.70 z"/>
		</clipPath>
	</defs>
	<g  clip-path="url(#clipPath1)" style="stroke-linecap:butt;stroke-linejoin:miter">
		<path d="M 27.70,27.70 27.70,584.20 764.20,584.20 764.20,27.70 z" fill="rgb(99.61%,99.61%,99.61%)"/>
		<path d="M 115.00,231.50 298.60,231.50 298.60,322.30 115.00,322.30 115.00,231.50" style="fill:none;stroke:rgb(49.61%,49.61%,49.61%);stroke-dasharray:none;stroke-width:0.30"/>
		<line x1="304.30" y1="288.80" x2="298.60" y2="288.80" style="fill:none;stroke:rgb(49.61%,49.61%,49.61%);stroke-dasharray:none;stroke-width:0.30"/>
		<line x1="109.30" y1="317.50" x2="115.00" y2="317.50" style="fill:none;stroke:rgb(49.61%,49.61%,49.61%);stroke-dasharray:none;stroke-width:0.30"/>
		<line x1="109.30" y1="241.00" x2="115.00" y2="241.00" style="fill:none;stroke:rgb(49.61%,49.61%,49.61%);stroke-dasharray:none;stroke-width:0.30"/>
		<line x1="292.90" y1="288.80" x2="298.60" y2="288.80" style="fill:none;stroke:rgb(49.61%,49.61%,49.61%);stroke-dasharray:none;stroke-width:0.30"/>
		<line x1="120.80" y1="317.50" x2="115.00" y2="317.50" style="fill:none;stroke:rgb(49.61%,49.61%,49.61%);stroke-dasharray:none;stroke-width:0.30"/>
		<line x1="120.80" y1="241.00" x2="115.00" y2="241.00" style="fill:none;stroke:rgb(49.61%,49.61%,49.61%);stroke-dasharray:none;stroke-width:0.30"/>
		<text x="206.80" y="230.50" transform="rotate(0.00,206.80,230.50)" font-family="Helvetica" font-size="5.74" fill="rgb(49.61%,49.61%,49.61%)" text-anchor="middle" >Expr</text>
		<path d="M 398.00,331.80 640.30,331.80 640.30,377.20 398.00,377.20 398.00,331.80" style="fill:none;stroke:rgb(49.61%,49.61%,49.61%);stroke-dasharray:none;stroke-width:0.30"/>
		<line x1="392.30" y1="341.40" x2="398.00" y2="341.40" style="fill:none;stroke:rgb(49.61%,49.61%,49.61%);stroke-dasharray:none;stroke-width:0.30"/>
		<line x1="646.10" y1="346.20" x2="640.30" y2="346.20" style="fill:none;stroke:rgb(49.61%,49.61%,49.61%);stroke-dasharray:none;stroke-width:0.30"/>
		<line x1="403.70" y1="341.40" x2="398.00" y2="341.40" style="fill:none;stroke:rgb(49.61%,49.61%,49.61%);stroke-dasharray:none;stroke-width:0.30"/>
		<line x1="634.60" y1="346.20" x2="640.30" y2="346.20" style="fill:none;stroke:rgb(49.61%,49.61%,49.61%);stroke-dasharray:none;stroke-width:0.30"/>
		<text x="519.00" y="330.80" transform="rotate(0.00,519.00,330.80)" font-family="Helvetica" font-size="5.74" fill="rgb(49.61%,49.61%,49.61%)" text-anchor="middle" >Expr</text>
		<polygon points=" 560.00,346.20 560.00,353.40 571.90,353.40 571.90,353.40 573.20,353.30 574.50,352.90 575.70,352.30 576.80,351.50 577.70,350.50 578.40,349.40 578.80,348.20 579.10,346.90 579.10,345.50 578.80,344.20 578.40,343.00 577.70,341.90 576.80,340.90 575.70,340.10 574.50,339.50 573.20,339.10 571.90,339.00 560.00,339.00 560.00,346.20" style="fill:rgb(79.69%,79.69%,79.69%);stroke:none;stroke-dasharray:none;stroke-width:none"/>
		<path d="M 560.00,346.20 560.00,353.40 571.90,353.40" style="fill:none;stroke:rgb(0.00%,0.00%,0.00%);stroke-dasharray:none;stroke-width:0.30"/>
		<path d="M571.90,353.40 A7.20,7.20,0,0,0,571.90,339.00" style="fill:none;stroke:rgb(0.00%,0.00%,0.00%);stroke-dasharray:none;stroke-width:0.30"/>
		<path d="M 571.90,339.00 560.00,339.00 560.00,346.20" style="fill:none;stroke:rgb(0.00%,0.00%,0.00%);stroke-dasharray:none;stroke-width:0.30"/>
		<line x1="584.90" y1="346.20" x2="579.10" y2="346.20" style="fill:none;stroke:rgb(0.00%,0.00%,0.00%);stroke-dasharray:none;stroke-width:0.30"/>
		<line x1="554.30" y1="346.20" x2="560.00" y2="346.20" style="fill:none;stroke:rgb(0.00%,0.00%,0.00%);stroke-dasharray:none;stroke-width:0.30"/>
		<polygon points=" 478.30,339.00 479.40,340.00 480.20,341.20 480.90,342.60 481.40,344.00 481.60,345.50 481.60,346.90 481.40,348.40 480.90,349.80 480.20,351.20 479.40,352.40 478.30,353.40 483.10,353.40 483.10,353.40 485.10,353.10 487.10,352.50 489.00,351.70 490.80,350.60 492.40,349.30 493.80,347.90 495.00,346.20 493.80,344.50 492.40,343.10 490.80,341.80 489.00,340.70 487.10,339.90 485.10,339.30 483.10,339.00 478.30,339.00" style="fill:rgb(79.69%,79.69%,79.69%);stroke:none;stroke-dasharray:none;stroke-width:none"/>
		<path d="M475.90,353.40 A9.42,9.42,0,0,0,475.90,339.00" style="fill:none;stroke:rgb(0.00%,0.00%,0.00%);stroke-dasharray:none;stroke-width:0.30"/>
		<path d="M478.30,353.40 A9.44,9.44,0,0,0,478.30,339.00" style="fill:none;stroke:rgb(0.00%,0.00%,0.00%);stroke-dasharray:none;stroke-width:0.30"/>
		<line x1="478.30" y1="353.40" x2="483.10" y2="353.40" style="fill:none;stroke:rgb(0.00%,0.00%,0.00%);stroke-dasharray:none;stroke-width:0.30"/>
		<path d="M483.10,353.40 A15.66,15.66,0,0,0,495.00,346.20" style="fill:none;stroke:rgb(0.00%,0.00%,0.00%);stroke-dasharray:none;stroke-width:0.30"/>
		<path d="M495.00,346.20 A15.66,15.66,0,0,0,483.10,339.00" style="fill:none;stroke:rgb(0.00%,0.00%,0.00%);stroke-dasharray:none;stroke-width:0.30"/>
		<line x1="483.10" y1="339.00" x2="478.30" y2="339.00" style="fill:none;stroke:rgb(0.00%,0.00%,0.00%);stroke-dasharray:none;stroke-width:0.30"/>
		<line x1="500.80" y1="346.20" x2="495.00" y2="346.20" style="fill:none;stroke:rgb(0.00%,0.00%,0.00%);stroke-dasharray:none;stroke-width:0.30"/>
		<line x1="470.20" y1="341.40" x2="477.80" y2="341.40" style="fill:none;stroke:rgb(0.00%,0.00%,0.00%);stroke-dasharray:none;stroke-width:0.30"/>
		<line x1="470.20" y1="350.90" x2="477.80" y2="350.90" style="fill:none;stroke:rgb(0.00%,0.00%,0.00%);stroke-dasharray:none;stroke-width:0.30"/>
		<text x="470.20" y="350.00" transform="rotate(0.00,470.20,350.00)" font-family="Helvetica" font-size="5.74" fill="rgb(0.00%,0.00%,0.00%)" text-anchor="end" >a</text>
		<polygon points=" 602.60,346.20 602.60,340.50 616.90,346.20 602.60,351.90 602.60,346.20" style="fill:rgb(79.69%,79.69%,79.69%);stroke:none;stroke-dasharray:none;stroke-width:none"/>
		<path d="M 602.60,346.20 602.60,340.50 616.90,346.20 602.60,351.90 602.60,346.20" style="fill:none;stroke:rgb(0.00%,0.00%,0.00%);stroke-dasharray:none;stroke-width:0.30"/>
		<line x1="622.60" y1="346.20" x2="616.90" y2="346.20" style="fill:none;stroke:rgb(0.00%,0.00%,0.00%);stroke-dasharray:none;stroke-width:0.30"/>
		<line x1="596.80" y1="346.20" x2="602.60" y2="346.20" style="fill:none;stroke:rgb(0.00%,0.00%,0.00%);stroke-dasharray:none;stroke-width:0.30"/>
		<circle cx="202.50" cy="284.00" r="9.55" style="fill:rgb(79.69%,79.69%,79.69%);stroke:none;stroke-dasharray:none;stroke-width:none"/>
		<circle cx="202.50" cy="284.00" r="9.55" style="fill:none;stroke:rgb(0.00%,0.00%,0.00%);stroke-dasharray:none;stroke-width:0.30"/>
		<line x1="217.80" y1="284.00" x2="212.10" y2="284.00" style="fill:none;stroke:rgb(0.00%,0.00%,0.00%);stroke-dasharray:none;stroke-width:0.30"/>
		<text x="218.30" y="283.00" transform="rotate(0.00,218.30,283.00)" font-family="Helvetica" font-size="5.74" fill="rgb(0.00%,0.00%,0.00%)" text-anchor="start" >0</text>
		<text x="202.60" y="286.87" transform="rotate(0.00,202.60,286.87)" font-family="Helvetica" font-size="5.74" fill="rgb(0.00%,0.00%,0.00%)" text-anchor="middle" >4&apos;b0</text>
		<circle cx="142.30" cy="260.10" r="9.55" style="fill:rgb(79.69%,79.69%,79.69%);stroke:none;stroke-dasharray:none;stroke-width:none"/>
		<circle cx="142.30" cy="260.10" r="9.55" style="fill:none;stroke:rgb(0.00%,0.00%,0.00%);stroke-dasharray:none;stroke-width:0.30"/>
		<line x1="157.60" y1="260.10" x2="151.90" y2="260.10" style="fill:none;stroke:rgb(0.00%,0.00%,0.00%);stroke-dasharray:none;stroke-width:0.30"/>
		<text x="158.10" y="259.10" transform="rotate(0.00,158.10,259.10)" font-family="Helvetica" font-size="5.74" fill="rgb(0.00%,0.00%,0.00%)" text-anchor="start" >1</text>
		<text x="142.40" y="262.97" transform="rotate(0.00,142.40,262.97)" font-family="Helvetica" font-size="5.74" fill="rgb(0.00%,0.00%,0.00%)" text-anchor="middle" >4&apos;b1</text>
		<circle cx="202.50" cy="250.60" r="9.55" style="fill:rgb(79.69%,79.69%,79.69%);stroke:none;stroke-dasharray:none;stroke-width:none"/>
		<circle cx="202.50" cy="250.60" r="9.55" style="fill:none;stroke:rgb(0.00%,0.00%,0.00%);stroke-dasharray:none;stroke-width:0.30"/>
		<line x1="193.00" y1="245.80" x2="194.00" y2="246.30" style="fill:none;stroke:rgb(0.00%,0.00%,0.00%);stroke-dasharray:none;stroke-width:0.30"/>
		<line x1="193.00" y1="255.40" x2="194.00" y2="254.90" style="fill:none;stroke:rgb(0.00%,0.00%,0.00%);stroke-dasharray:none;stroke-width:0.30"/>
		<line x1="217.80" y1="250.60" x2="212.10" y2="250.60" style="fill:none;stroke:rgb(0.00%,0.00%,0.00%);stroke-dasharray:none;stroke-width:0.30"/>
		<line x1="187.20" y1="245.80" x2="193.00" y2="245.80" style="fill:none;stroke:rgb(0.00%,0.00%,0.00%);stroke-dasharray:none;stroke-width:0.30"/>
		<line x1="187.20" y1="255.40" x2="193.00" y2="255.40" style="fill:none;stroke:rgb(0.00%,0.00%,0.00%);stroke-dasharray:none;stroke-width:0.30"/>
		<text x="187.30" y="254.40" transform="rotate(0.00,187.30,254.40)" font-family="Helvetica" font-size="5.74" fill="rgb(0.00%,0.00%,0.00%)" text-anchor="end" >1</text>
		<text x="202.60" y="253.47" transform="rotate(0.00,202.60,253.47)" font-family="Helvetica" font-size="5.74" fill="rgb(0.00%,0.00%,0.00%)" text-anchor="middle" >+</text>
		<polygon points=" 256.10,274.50 275.20,281.60 275.20,296.00 256.10,303.10 256.10,274.50" style="fill:rgb(79.69%,79.69%,79.69%);stroke:none;stroke-dasharray:none;stroke-width:none"/>
		<path d="M 256.10,274.50 275.20,281.60 275.20,296.00 256.10,303.10 256.10,274.50" style="fill:none;stroke:rgb(0.00%,0.00%,0.00%);stroke-dasharray:none;stroke-width:0.30"/>
		<line x1="280.90" y1="288.80" x2="275.20" y2="288.80" style="fill:none;stroke:rgb(0.00%,0.00%,0.00%);stroke-dasharray:none;stroke-width:0.30"/>
		<text x="276.20" y="288.30" transform="rotate(0.00,276.20,288.30)" font-family="Helvetica" font-size="4.78" fill="rgb(0.00%,0.00%,0.00%)" text-anchor="start" >O</text>
		<line x1="265.60" y1="307.90" x2="265.60" y2="299.30" style="fill:none;stroke:rgb(0.00%,0.00%,0.00%);stroke-dasharray:none;stroke-width:0.30"/>
		<text x="264.70" y="307.88" transform="rotate(0.00,264.70,307.88)" font-family="Helvetica" font-size="4.78" fill="rgb(0.00%,0.00%,0.00%)" text-anchor="end" >S</text>
		<line x1="250.30" y1="284.00" x2="256.10" y2="284.00" style="fill:none;stroke:rgb(0.00%,0.00%,0.00%);stroke-dasharray:none;stroke-width:0.30"/>
		<text x="255.10" y="283.50" transform="rotate(0.00,255.10,283.50)" font-family="Helvetica" font-size="4.78" fill="rgb(0.00%,0.00%,0.00%)" text-anchor="end" >D1</text>
		<text x="248.90" y="283.10" transform="rotate(0.00,248.90,283.10)" font-family="Helvetica" font-size="5.74" fill="rgb(0.00%,0.00%,0.00%)" text-anchor="end" >0</text>
		<line x1="250.30" y1="293.60" x2="256.10" y2="293.60" style="fill:none;stroke:rgb(0.00%,0.00%,0.00%);stroke-dasharray:none;stroke-width:0.30"/>
		<text x="255.10" y="293.10" transform="rotate(0.00,255.10,293.10)" font-family="Helvetica" font-size="4.78" fill="rgb(0.00%,0.00%,0.00%)" text-anchor="end" >D0</text>
		<path d="M 90.20,384.40 86.90,387.70 80.20,387.70 80.20,381.10 86.90,381.10 90.20,384.40" style="fill:none;stroke:rgb(0.00%,0.00%,0.00%);stroke-dasharray:none;stroke-width:0.30"/>
		<text x="78.30" y="387.27" transform="rotate(0.00,78.30,387.27)" font-family="Helvetica" font-size="5.74" fill="rgb(0.00%,0.00%,0.00%)" text-anchor="end" >rst</text>
		<path d="M 665.20,327.00 665.20,323.70 671.90,323.70 675.20,327.00 671.90,330.30 665.20,330.30 665.20,327.00" style="fill:none;stroke:rgb(0.00%,0.00%,0.00%);stroke-dasharray:none;stroke-width:0.30"/>
		<text x="677.10" y="329.87" transform="rotate(0.00,677.10,329.87)" font-family="Helvetica" font-size="5.74" fill="rgb(0.00%,0.00%,0.00%)" text-anchor="start">clk_div10_out</text>
		<polygon points=" 329.20,341.40 367.40,341.40 367.40,370.00 329.20,370.00 329.20,341.40" style="fill:rgb(79.69%,79.69%,79.69%);stroke:none;stroke-dasharray:none;stroke-width:none"/>
		<path d="M 329.20,341.40 367.40,341.40 367.40,370.00 329.20,370.00 329.20,341.40" style="fill:none;stroke:rgb(0.00%,0.00%,0.00%);stroke-dasharray:none;stroke-width:0.30"/>
		<path d="M 329.20,361.90 332.50,360.50 329.20,359.00" style="fill:none;stroke:rgb(0.00%,0.00%,0.00%);stroke-dasharray:none;stroke-width:0.30"/>
		<line x1="353.10" y1="375.80" x2="353.10" y2="370.00" style="fill:none;stroke:rgb(0.00%,0.00%,0.00%);stroke-dasharray:none;stroke-width:0.30"/>
		<text x="355.49" y="369.10" transform="rotate(-90.00,355.49,369.10)" font-family="Helvetica" font-size="4.78" fill="rgb(0.00%,0.00%,0.00%)" text-anchor="start">RST</text>
		<line x1="373.20" y1="355.70" x2="367.40" y2="355.70" style="fill:none;stroke:rgb(0.00%,0.00%,0.00%);stroke-dasharray:none;stroke-width:0.30"/>
		<text x="366.50" y="358.09" transform="rotate(0.00,366.50,358.09)" font-family="Helvetica" font-size="4.78" fill="rgb(0.00%,0.00%,0.00%)" text-anchor="end" >Q</text>
		<line x1="323.40" y1="350.90" x2="329.20" y2="350.90" style="fill:none;stroke:rgb(0.00%,0.00%,0.00%);stroke-dasharray:none;stroke-width:0.30"/>
		<text x="330.20" y="353.29" transform="rotate(0.00,330.20,353.29)" font-family="Helvetica" font-size="4.78" fill="rgb(0.00%,0.00%,0.00%)" text-anchor="start">D</text>
		<line x1="323.40" y1="360.50" x2="329.20" y2="360.50" style="fill:none;stroke:rgb(0.00%,0.00%,0.00%);stroke-dasharray:none;stroke-width:0.30"/>
		<text x="348.30" y="340.40" transform="rotate(0.00,348.30,340.40)" font-family="Helvetica" font-size="5.74" fill="rgb(0.00%,0.00%,0.00%)" text-anchor="middle" >cnt</text>
		<path d="M 90.20,360.50 86.90,363.80 80.20,363.80 80.20,357.20 86.90,357.20 90.20,360.50" style="fill:none;stroke:rgb(0.00%,0.00%,0.00%);stroke-dasharray:none;stroke-width:0.30"/>
		<text x="78.30" y="363.37" transform="rotate(0.00,78.30,363.37)" font-family="Helvetica" font-size="5.74" fill="rgb(0.00%,0.00%,0.00%)" text-anchor="end" >clk</text>
		<circle cx="534.60" cy="346.20" r="1.95" style="fill:rgb(79.69%,79.69%,79.69%);stroke:none;stroke-dasharray:none;stroke-width:none"/>
		<polygon points=" 518.40,346.20 518.40,340.50 532.70,346.20 518.40,351.90 518.40,346.20" style="fill:rgb(79.69%,79.69%,79.69%);stroke:none;stroke-dasharray:none;stroke-width:none"/>
		<circle cx="534.60" cy="346.20" r="1.95" style="fill:none;stroke:rgb(0.00%,0.00%,0.00%);stroke-dasharray:none;stroke-width:0.30"/>
		<path d="M 518.40,346.20 518.40,340.50 532.70,346.20 518.40,351.90 518.40,346.20" style="fill:none;stroke:rgb(0.00%,0.00%,0.00%);stroke-dasharray:none;stroke-width:0.30"/>
		<line x1="542.30" y1="346.20" x2="536.60" y2="346.20" style="fill:none;stroke:rgb(0.00%,0.00%,0.00%);stroke-dasharray:none;stroke-width:0.30"/>
		<line x1="512.70" y1="346.20" x2="518.40" y2="346.20" style="fill:none;stroke:rgb(0.00%,0.00%,0.00%);stroke-dasharray:none;stroke-width:0.30"/>
		<circle cx="425.20" cy="360.50" r="9.55" style="fill:rgb(79.69%,79.69%,79.69%);stroke:none;stroke-dasharray:none;stroke-width:none"/>
		<circle cx="425.20" cy="360.50" r="9.55" style="fill:none;stroke:rgb(0.00%,0.00%,0.00%);stroke-dasharray:none;stroke-width:0.30"/>
		<line x1="440.50" y1="360.50" x2="434.80" y2="360.50" style="fill:none;stroke:rgb(0.00%,0.00%,0.00%);stroke-dasharray:none;stroke-width:0.30"/>
		<text x="441.00" y="359.50" transform="rotate(0.00,441.00,359.50)" font-family="Helvetica" font-size="5.74" fill="rgb(0.00%,0.00%,0.00%)" text-anchor="start" >a</text>
		<text x="425.30" y="363.37" transform="rotate(0.00,425.30,363.37)" font-family="Helvetica" font-size="5.74" fill="rgb(0.00%,0.00%,0.00%)" text-anchor="middle" >4&apos;ha</text>
		<line x1="217.80" y1="284.00" x2="250.30" y2="284.00" style="fill:none;stroke:rgb(0.00%,0.00%,0.00%);stroke-dasharray:none;stroke-width:0.30"/>
		<path d="M 217.80,250.60 232.60,250.60 232.60,293.60 250.30,293.60" style="fill:none;stroke:rgb(0.00%,0.00%,0.00%);stroke-dasharray:none;stroke-width:0.30"/>
		<path d="M 304.30,288.80 313.90,288.80 313.90,350.90 323.40,350.90" style="fill:none;stroke:rgb(0.00%,0.00%,0.00%);stroke-dasharray:none;stroke-width:0.30"/>
		<line x1="280.90" y1="288.80" x2="292.90" y2="288.80" style="fill:none;stroke:rgb(0.00%,0.00%,0.00%);stroke-dasharray:none;stroke-width:0.30"/>
		<line x1="584.90" y1="346.20" x2="596.80" y2="346.20" style="fill:none;stroke:rgb(0.00%,0.00%,0.00%);stroke-dasharray:none;stroke-width:0.30"/>
		<line x1="90.20" y1="360.50" x2="323.40" y2="360.50" style="fill:none;stroke:rgb(0.00%,0.00%,0.00%);stroke-dasharray:none;stroke-width:0.30"/>
		<path d="M 109.30,317.50 99.80,317.50 99.80,327.00 655.60,327.00 655.60,346.20 646.10,346.20" style="fill:none;stroke:rgb(0.00%,0.00%,0.00%);stroke-dasharray:none;stroke-width:0.30"/>
		<line x1="655.60" y1="327.00" x2="665.20" y2="327.00" style="fill:none;stroke:rgb(0.00%,0.00%,0.00%);stroke-dasharray:none;stroke-width:0.30"/>
		<rect x="654.85" y="326.25" width="1.50" height="1.50" style="fill:rgb(0.00%,0.00%,0.00%);stroke:rgb(0.00%,0.00%,0.00%);stroke-dasharray:none;stroke-width:0.30"/>
		<path d="M 120.80,317.50 265.60,317.50 265.60,307.90" style="fill:none;stroke:rgb(0.00%,0.00%,0.00%);stroke-dasharray:none;stroke-width:0.30"/>
		<line x1="622.60" y1="346.20" x2="634.60" y2="346.20" style="fill:none;stroke:rgb(0.00%,0.00%,0.00%);stroke-dasharray:none;stroke-width:0.30"/>
		<path d="M 109.30,241.00 99.80,241.00 99.80,226.70 382.70,226.70 382.70,355.70 373.20,355.70" style="fill:none;stroke:rgb(0.00%,0.00%,0.00%);stroke-dasharray:none;stroke-width:0.30"/>
		<line x1="382.70" y1="341.40" x2="392.30" y2="341.40" style="fill:none;stroke:rgb(0.00%,0.00%,0.00%);stroke-dasharray:none;stroke-width:0.30"/>
		<rect x="381.95" y="340.65" width="1.50" height="1.50" style="fill:rgb(0.00%,0.00%,0.00%);stroke:rgb(0.00%,0.00%,0.00%);stroke-dasharray:none;stroke-width:0.30"/>
		<path d="M 120.80,241.00 172.40,241.00 172.40,245.80 187.20,245.80" style="fill:none;stroke:rgb(0.00%,0.00%,0.00%);stroke-dasharray:none;stroke-width:0.30"/>
		<line x1="403.70" y1="341.40" x2="470.20" y2="341.40" style="fill:none;stroke:rgb(0.00%,0.00%,0.00%);stroke-dasharray:none;stroke-width:0.30"/>
		<path d="M 90.20,384.40 353.10,384.40 353.10,375.80" style="fill:none;stroke:rgb(0.00%,0.00%,0.00%);stroke-dasharray:none;stroke-width:0.30"/>
		<path d="M 157.60,260.10 172.40,260.10 172.40,255.40 187.20,255.40" style="fill:none;stroke:rgb(0.00%,0.00%,0.00%);stroke-dasharray:none;stroke-width:0.30"/>
		<path d="M 440.50,360.50 455.40,360.50 455.40,350.90 470.20,350.90" style="fill:none;stroke:rgb(0.00%,0.00%,0.00%);stroke-dasharray:none;stroke-width:0.30"/>
		<line x1="500.80" y1="346.20" x2="512.70" y2="346.20" style="fill:none;stroke:rgb(0.00%,0.00%,0.00%);stroke-dasharray:none;stroke-width:0.30"/>
		<line x1="542.30" y1="346.20" x2="554.30" y2="346.20" style="fill:none;stroke:rgb(0.00%,0.00%,0.00%);stroke-dasharray:none;stroke-width:0.30"/>
	</g>
</svg>
