<!-- Creater                 : nlviewTK -->
<!-- DocumentNeededResources : font  Helvetica -->

<svg xmlns="http://www.w3.org/2000/svg" version="1.1" width="794.10" height="614.10" style="background:rgb(99.61%,99.61%,99.61%)">
	<title> first </title>
	<defs>
		<!--Clipping simply refers to cutting off the edges of an image that doesn't fit inside a given area.-->
		<clipPath id="clipPath1">
			<path d="M 27.70,27.70 27.70,584.20 764.20,584.20 764.20,27.70 z"/>
		</clipPath>
	</defs>
	<g  clip-path="url(#clipPath1)" style="stroke-linecap:butt;stroke-linejoin:miter">
		<path d="M 27.70,27.70 27.70,584.20 764.20,584.20 764.20,27.70 z" fill="rgb(99.61%,99.61%,99.61%)"/>
		<path d="M 177.40,337.00 327.60,337.00 327.60,406.50 177.40,406.50 177.40,337.00" style="fill:none;stroke:rgb(49.61%,49.61%,49.61%);stroke-dasharray:none;stroke-width:0.30"/>
		<line x1="334.00" y1="358.40" x2="327.60" y2="358.40" style="fill:none;stroke:rgb(49.61%,49.61%,49.61%);stroke-dasharray:none;stroke-width:0.30"/>
		<line x1="171.00" y1="353.10" x2="177.40" y2="353.10" style="fill:none;stroke:rgb(49.61%,49.61%,49.61%);stroke-dasharray:none;stroke-width:0.30"/>
		<line x1="171.00" y1="385.20" x2="177.40" y2="385.20" style="fill:none;stroke:rgb(49.61%,49.61%,49.61%);stroke-dasharray:none;stroke-width:0.30"/>
		<line x1="171.00" y1="363.80" x2="177.40" y2="363.80" style="fill:none;stroke:rgb(49.61%,49.61%,49.61%);stroke-dasharray:none;stroke-width:0.30"/>
		<line x1="321.20" y1="358.40" x2="327.60" y2="358.40" style="fill:none;stroke:rgb(49.61%,49.61%,49.61%);stroke-dasharray:none;stroke-width:0.30"/>
		<line x1="183.80" y1="353.10" x2="177.40" y2="353.10" style="fill:none;stroke:rgb(49.61%,49.61%,49.61%);stroke-dasharray:none;stroke-width:0.30"/>
		<line x1="183.80" y1="385.20" x2="177.40" y2="385.20" style="fill:none;stroke:rgb(49.61%,49.61%,49.61%);stroke-dasharray:none;stroke-width:0.30"/>
		<line x1="183.80" y1="363.80" x2="177.40" y2="363.80" style="fill:none;stroke:rgb(49.61%,49.61%,49.61%);stroke-dasharray:none;stroke-width:0.30"/>
		<text x="252.30" y="335.90" transform="rotate(0.00,252.30,335.90)" font-family="Helvetica" font-size="6.42" fill="rgb(49.61%,49.61%,49.61%)" text-anchor="middle" >Expr</text>
		<path d="M 536.70,358.40 655.90,358.40 655.90,417.20 536.70,417.20 536.70,358.40" style="fill:none;stroke:rgb(49.61%,49.61%,49.61%);stroke-dasharray:none;stroke-width:0.30"/>
		<line x1="530.20" y1="411.90" x2="536.70" y2="411.90" style="fill:none;stroke:rgb(49.61%,49.61%,49.61%);stroke-dasharray:none;stroke-width:0.30"/>
		<line x1="530.20" y1="374.50" x2="536.70" y2="374.50" style="fill:none;stroke:rgb(49.61%,49.61%,49.61%);stroke-dasharray:none;stroke-width:0.30"/>
		<line x1="530.20" y1="385.20" x2="536.70" y2="385.20" style="fill:none;stroke:rgb(49.61%,49.61%,49.61%);stroke-dasharray:none;stroke-width:0.30"/>
		<line x1="662.30" y1="379.80" x2="655.90" y2="379.80" style="fill:none;stroke:rgb(49.61%,49.61%,49.61%);stroke-dasharray:none;stroke-width:0.30"/>
		<line x1="543.10" y1="411.90" x2="536.70" y2="411.90" style="fill:none;stroke:rgb(49.61%,49.61%,49.61%);stroke-dasharray:none;stroke-width:0.30"/>
		<line x1="543.10" y1="374.50" x2="536.70" y2="374.50" style="fill:none;stroke:rgb(49.61%,49.61%,49.61%);stroke-dasharray:none;stroke-width:0.30"/>
		<line x1="543.10" y1="385.20" x2="536.70" y2="385.20" style="fill:none;stroke:rgb(49.61%,49.61%,49.61%);stroke-dasharray:none;stroke-width:0.30"/>
		<line x1="649.50" y1="379.80" x2="655.90" y2="379.80" style="fill:none;stroke:rgb(49.61%,49.61%,49.61%);stroke-dasharray:none;stroke-width:0.30"/>
		<text x="596.00" y="357.30" transform="rotate(0.00,596.00,357.30)" font-family="Helvetica" font-size="6.42" fill="rgb(49.61%,49.61%,49.61%)" text-anchor="middle" >Expr</text>
		<path d="M 177.40,283.60 361.30,283.60 361.30,331.70 177.40,331.70 177.40,283.60" style="fill:none;stroke:rgb(49.61%,49.61%,49.61%);stroke-dasharray:none;stroke-width:0.30"/>
		<line x1="171.00" y1="310.30" x2="177.40" y2="310.30" style="fill:none;stroke:rgb(49.61%,49.61%,49.61%);stroke-dasharray:none;stroke-width:0.30"/>
		<line x1="171.00" y1="294.30" x2="177.40" y2="294.30" style="fill:none;stroke:rgb(49.61%,49.61%,49.61%);stroke-dasharray:none;stroke-width:0.30"/>
		<line x1="367.70" y1="321.00" x2="361.30" y2="321.00" style="fill:none;stroke:rgb(49.61%,49.61%,49.61%);stroke-dasharray:none;stroke-width:0.30"/>
		<line x1="171.00" y1="326.40" x2="177.40" y2="326.40" style="fill:none;stroke:rgb(49.61%,49.61%,49.61%);stroke-dasharray:none;stroke-width:0.30"/>
		<line x1="183.80" y1="310.30" x2="177.40" y2="310.30" style="fill:none;stroke:rgb(49.61%,49.61%,49.61%);stroke-dasharray:none;stroke-width:0.30"/>
		<line x1="183.80" y1="294.30" x2="177.40" y2="294.30" style="fill:none;stroke:rgb(49.61%,49.61%,49.61%);stroke-dasharray:none;stroke-width:0.30"/>
		<line x1="354.90" y1="321.00" x2="361.30" y2="321.00" style="fill:none;stroke:rgb(49.61%,49.61%,49.61%);stroke-dasharray:none;stroke-width:0.30"/>
		<line x1="183.80" y1="326.40" x2="177.40" y2="326.40" style="fill:none;stroke:rgb(49.61%,49.61%,49.61%);stroke-dasharray:none;stroke-width:0.30"/>
		<text x="269.40" y="282.50" transform="rotate(0.00,269.40,282.50)" font-family="Helvetica" font-size="6.42" fill="rgb(49.61%,49.61%,49.61%)" text-anchor="middle" >Expr</text>
		<path d="M 177.40,198.00 306.80,198.00 306.80,235.40 177.40,235.40 177.40,198.00" style="fill:none;stroke:rgb(49.61%,49.61%,49.61%);stroke-dasharray:none;stroke-width:0.30"/>
		<line x1="171.00" y1="208.70" x2="177.40" y2="208.70" style="fill:none;stroke:rgb(49.61%,49.61%,49.61%);stroke-dasharray:none;stroke-width:0.30"/>
		<line x1="171.00" y1="219.40" x2="177.40" y2="219.40" style="fill:none;stroke:rgb(49.61%,49.61%,49.61%);stroke-dasharray:none;stroke-width:0.30"/>
		<line x1="313.20" y1="224.80" x2="306.80" y2="224.80" style="fill:none;stroke:rgb(49.61%,49.61%,49.61%);stroke-dasharray:none;stroke-width:0.30"/>
		<line x1="171.00" y1="230.10" x2="177.40" y2="230.10" style="fill:none;stroke:rgb(49.61%,49.61%,49.61%);stroke-dasharray:none;stroke-width:0.30"/>
		<line x1="183.80" y1="208.70" x2="177.40" y2="208.70" style="fill:none;stroke:rgb(49.61%,49.61%,49.61%);stroke-dasharray:none;stroke-width:0.30"/>
		<line x1="183.80" y1="219.40" x2="177.40" y2="219.40" style="fill:none;stroke:rgb(49.61%,49.61%,49.61%);stroke-dasharray:none;stroke-width:0.30"/>
		<line x1="300.40" y1="224.80" x2="306.80" y2="224.80" style="fill:none;stroke:rgb(49.61%,49.61%,49.61%);stroke-dasharray:none;stroke-width:0.30"/>
		<line x1="183.80" y1="230.10" x2="177.40" y2="230.10" style="fill:none;stroke:rgb(49.61%,49.61%,49.61%);stroke-dasharray:none;stroke-width:0.30"/>
		<text x="242.10" y="196.90" transform="rotate(0.00,242.10,196.90)" font-family="Helvetica" font-size="6.42" fill="rgb(49.61%,49.61%,49.61%)" text-anchor="middle" >Expr</text>
		<polygon points=" 313.70,321.00 313.70,329.00 327.10,329.00 327.10,329.00 328.50,328.90 329.80,328.50 331.10,327.90 332.20,327.10 333.20,326.10 334.00,325.00 334.60,323.70 335.00,322.40 335.10,321.00 335.00,319.60 334.60,318.30 334.00,317.00 333.20,315.90 332.20,314.90 331.10,314.10 329.80,313.50 328.50,313.10 327.10,313.00 313.70,313.00 313.70,321.00" style="fill:rgb(79.69%,79.69%,79.69%);stroke:none;stroke-dasharray:none;stroke-width:none"/>
		<path d="M 313.70,321.00 313.70,329.00 327.10,329.00" style="fill:none;stroke:rgb(0.00%,0.00%,0.00%);stroke-dasharray:none;stroke-width:0.30"/>
		<path d="M327.10,329.00 A8.00,8.00,0,0,0,327.10,313.00" style="fill:none;stroke:rgb(0.00%,0.00%,0.00%);stroke-dasharray:none;stroke-width:0.30"/>
		<path d="M 327.10,313.00 313.70,313.00 313.70,321.00" style="fill:none;stroke:rgb(0.00%,0.00%,0.00%);stroke-dasharray:none;stroke-width:0.30"/>
		<line x1="341.50" y1="321.00" x2="335.10" y2="321.00" style="fill:none;stroke:rgb(0.00%,0.00%,0.00%);stroke-dasharray:none;stroke-width:0.30"/>
		<line x1="307.30" y1="315.70" x2="313.70" y2="315.70" style="fill:none;stroke:rgb(0.00%,0.00%,0.00%);stroke-dasharray:none;stroke-width:0.30"/>
		<line x1="307.30" y1="326.40" x2="313.70" y2="326.40" style="fill:none;stroke:rgb(0.00%,0.00%,0.00%);stroke-dasharray:none;stroke-width:0.30"/>
		<polygon points=" 566.10,363.80 587.50,371.80 587.50,387.80 566.10,395.80 566.10,363.80" style="fill:rgb(79.69%,79.69%,79.69%);stroke:none;stroke-dasharray:none;stroke-width:none"/>
		<path d="M 566.10,363.80 587.50,371.80 587.50,387.80 566.10,395.80 566.10,363.80" style="fill:none;stroke:rgb(0.00%,0.00%,0.00%);stroke-dasharray:none;stroke-width:0.30"/>
		<line x1="593.90" y1="379.80" x2="587.50" y2="379.80" style="fill:none;stroke:rgb(0.00%,0.00%,0.00%);stroke-dasharray:none;stroke-width:0.30"/>
		<text x="588.60" y="379.30" transform="rotate(0.00,588.60,379.30)" font-family="Helvetica" font-size="5.35" fill="rgb(0.00%,0.00%,0.00%)" text-anchor="start" >O</text>
		<line x1="576.80" y1="401.20" x2="576.80" y2="391.60" style="fill:none;stroke:rgb(0.00%,0.00%,0.00%);stroke-dasharray:none;stroke-width:0.30"/>
		<text x="575.70" y="401.15" transform="rotate(0.00,575.70,401.15)" font-family="Helvetica" font-size="5.35" fill="rgb(0.00%,0.00%,0.00%)" text-anchor="end" >S</text>
		<line x1="559.70" y1="374.50" x2="566.10" y2="374.50" style="fill:none;stroke:rgb(0.00%,0.00%,0.00%);stroke-dasharray:none;stroke-width:0.30"/>
		<text x="565.00" y="373.90" transform="rotate(0.00,565.00,373.90)" font-family="Helvetica" font-size="5.35" fill="rgb(0.00%,0.00%,0.00%)" text-anchor="end" >D1</text>
		<line x1="559.70" y1="385.20" x2="566.10" y2="385.20" style="fill:none;stroke:rgb(0.00%,0.00%,0.00%);stroke-dasharray:none;stroke-width:0.30"/>
		<text x="565.00" y="384.60" transform="rotate(0.00,565.00,384.60)" font-family="Helvetica" font-size="5.35" fill="rgb(0.00%,0.00%,0.00%)" text-anchor="end" >D0</text>
		<polygon points=" 613.60,379.80 613.60,373.40 629.60,379.80 613.60,386.20 613.60,379.80" style="fill:rgb(79.69%,79.69%,79.69%);stroke:none;stroke-dasharray:none;stroke-width:none"/>
		<path d="M 613.60,379.80 613.60,373.40 629.60,379.80 613.60,386.20 613.60,379.80" style="fill:none;stroke:rgb(0.00%,0.00%,0.00%);stroke-dasharray:none;stroke-width:0.30"/>
		<line x1="636.10" y1="379.80" x2="629.60" y2="379.80" style="fill:none;stroke:rgb(0.00%,0.00%,0.00%);stroke-dasharray:none;stroke-width:0.30"/>
		<line x1="607.20" y1="379.80" x2="613.60" y2="379.80" style="fill:none;stroke:rgb(0.00%,0.00%,0.00%);stroke-dasharray:none;stroke-width:0.30"/>
		<polygon points=" 269.40,342.40 301.50,350.40 301.50,366.40 269.40,374.40 269.40,342.40" style="fill:rgb(79.69%,79.69%,79.69%);stroke:none;stroke-dasharray:none;stroke-width:none"/>
		<path d="M 269.40,342.40 301.50,350.40 301.50,366.40 269.40,374.40 269.40,342.40" style="fill:none;stroke:rgb(0.00%,0.00%,0.00%);stroke-dasharray:none;stroke-width:0.30"/>
		<line x1="307.80" y1="358.40" x2="301.50" y2="358.40" style="fill:none;stroke:rgb(0.00%,0.00%,0.00%);stroke-dasharray:none;stroke-width:0.30"/>
		<text x="302.50" y="357.90" transform="rotate(0.00,302.50,357.90)" font-family="Helvetica" font-size="5.35" fill="rgb(0.00%,0.00%,0.00%)" text-anchor="start" >O</text>
		<line x1="280.00" y1="379.80" x2="280.00" y2="371.80" style="fill:none;stroke:rgb(0.00%,0.00%,0.00%);stroke-dasharray:none;stroke-width:0.30"/>
		<text x="279.00" y="374.40" transform="rotate(-90.00,279.00,374.40)" font-family="Helvetica" font-size="5.35" fill="rgb(0.00%,0.00%,0.00%)" text-anchor="end" >C1</text>
		<line x1="262.90" y1="353.10" x2="269.40" y2="353.10" style="fill:none;stroke:rgb(0.00%,0.00%,0.00%);stroke-dasharray:none;stroke-width:0.30"/>
		<text x="268.30" y="352.50" transform="rotate(0.00,268.30,352.50)" font-family="Helvetica" font-size="5.35" fill="rgb(0.00%,0.00%,0.00%)" text-anchor="end" >D1</text>
		<line x1="290.70" y1="379.80" x2="290.70" y2="369.10" style="fill:none;stroke:rgb(0.00%,0.00%,0.00%);stroke-dasharray:none;stroke-width:0.30"/>
		<text x="289.70" y="374.40" transform="rotate(-90.00,289.70,374.40)" font-family="Helvetica" font-size="5.35" fill="rgb(0.00%,0.00%,0.00%)" text-anchor="end" >C2</text>
		<line x1="262.90" y1="363.80" x2="269.40" y2="363.80" style="fill:none;stroke:rgb(0.00%,0.00%,0.00%);stroke-dasharray:none;stroke-width:0.30"/>
		<text x="268.30" y="363.20" transform="rotate(0.00,268.30,363.20)" font-family="Helvetica" font-size="5.35" fill="rgb(0.00%,0.00%,0.00%)" text-anchor="end" >D2</text>
		<circle cx="229.70" cy="385.20" r="2.15" style="fill:rgb(79.69%,79.69%,79.69%);stroke:none;stroke-dasharray:none;stroke-width:none"/>
		<polygon points=" 211.60,385.20 211.60,378.80 227.60,385.20 211.60,391.60 211.60,385.20" style="fill:rgb(79.69%,79.69%,79.69%);stroke:none;stroke-dasharray:none;stroke-width:none"/>
		<circle cx="229.70" cy="385.20" r="2.15" style="fill:none;stroke:rgb(0.00%,0.00%,0.00%);stroke-dasharray:none;stroke-width:0.30"/>
		<path d="M 211.60,385.20 211.60,378.80 227.60,385.20 211.60,391.60 211.60,385.20" style="fill:none;stroke:rgb(0.00%,0.00%,0.00%);stroke-dasharray:none;stroke-width:0.30"/>
		<line x1="238.30" y1="385.20" x2="231.90" y2="385.20" style="fill:none;stroke:rgb(0.00%,0.00%,0.00%);stroke-dasharray:none;stroke-width:0.30"/>
		<line x1="205.20" y1="385.20" x2="211.60" y2="385.20" style="fill:none;stroke:rgb(0.00%,0.00%,0.00%);stroke-dasharray:none;stroke-width:0.30"/>
		<polygon points=" 438.30,294.30 470.40,294.30 470.40,326.30 438.30,326.30 438.30,294.30" style="fill:rgb(79.69%,79.69%,79.69%);stroke:none;stroke-dasharray:none;stroke-width:none"/>
		<path d="M 438.30,294.30 470.40,294.30 470.40,326.30 438.30,326.30 438.30,294.30" style="fill:none;stroke:rgb(0.00%,0.00%,0.00%);stroke-dasharray:none;stroke-width:0.30"/>
		<line x1="476.80" y1="310.30" x2="470.40" y2="310.30" style="fill:none;stroke:rgb(0.00%,0.00%,0.00%);stroke-dasharray:none;stroke-width:0.30"/>
		<text x="469.30" y="312.97" transform="rotate(0.00,469.30,312.97)" font-family="Helvetica" font-size="5.35" fill="rgb(0.00%,0.00%,0.00%)" text-anchor="end" >Q</text>
		<line x1="431.90" y1="305.00" x2="438.30" y2="305.00" style="fill:none;stroke:rgb(0.00%,0.00%,0.00%);stroke-dasharray:none;stroke-width:0.30"/>
		<text x="439.40" y="307.67" transform="rotate(0.00,439.40,307.67)" font-family="Helvetica" font-size="5.35" fill="rgb(0.00%,0.00%,0.00%)" text-anchor="start">D</text>
		<line x1="431.90" y1="315.70" x2="438.30" y2="315.70" style="fill:none;stroke:rgb(0.00%,0.00%,0.00%);stroke-dasharray:none;stroke-width:0.30"/>
		<text x="439.40" y="318.27" transform="rotate(0.00,439.40,318.27)" font-family="Helvetica" font-size="5.35" fill="rgb(0.00%,0.00%,0.00%)" text-anchor="start">EN</text>
		<text x="454.30" y="293.20" transform="rotate(0.00,454.30,293.20)" font-family="Helvetica" font-size="6.42" fill="rgb(0.00%,0.00%,0.00%)" text-anchor="middle" >QLat</text>
		<path d="M 126.60,305.00 122.90,308.70 115.40,308.70 115.40,301.30 122.90,301.30 126.60,305.00" style="fill:none;stroke:rgb(0.00%,0.00%,0.00%);stroke-dasharray:none;stroke-width:0.30"/>
		<text x="113.20" y="308.21" transform="rotate(0.00,113.20,308.21)" font-family="Helvetica" font-size="6.42" fill="rgb(0.00%,0.00%,0.00%)" text-anchor="end" >LAT</text>
		<path d="M 675.70,379.80 675.70,376.10 683.20,376.10 686.90,379.80 683.20,383.50 675.70,383.50 675.70,379.80" style="fill:none;stroke:rgb(0.00%,0.00%,0.00%);stroke-dasharray:none;stroke-width:0.30"/>
		<text x="689.10" y="383.01" transform="rotate(0.00,689.10,383.01)" font-family="Helvetica" font-size="6.42" fill="rgb(0.00%,0.00%,0.00%)" text-anchor="start">Q</text>
		<path d="M 126.60,363.80 122.90,367.50 115.40,367.50 115.40,360.10 122.90,360.10 126.60,363.80" style="fill:none;stroke:rgb(0.00%,0.00%,0.00%);stroke-dasharray:none;stroke-width:0.30"/>
		<text x="113.20" y="367.01" transform="rotate(0.00,113.20,367.01)" font-family="Helvetica" font-size="6.42" fill="rgb(0.00%,0.00%,0.00%)" text-anchor="end" >D</text>
		<path d="M 126.60,208.70 122.90,212.40 115.40,212.40 115.40,205.00 122.90,205.00 126.60,208.70" style="fill:none;stroke:rgb(0.00%,0.00%,0.00%);stroke-dasharray:none;stroke-width:0.30"/>
		<text x="113.20" y="211.91" transform="rotate(0.00,113.20,211.91)" font-family="Helvetica" font-size="6.42" fill="rgb(0.00%,0.00%,0.00%)" text-anchor="end" >clk</text>
		<polygon points=" 438.30,208.70 491.80,208.70 491.80,251.50 438.30,251.50 438.30,208.70" style="fill:rgb(79.69%,79.69%,79.69%);stroke:none;stroke-dasharray:none;stroke-width:none"/>
		<path d="M 438.30,208.70 491.80,208.70 491.80,251.50 438.30,251.50 438.30,208.70" style="fill:none;stroke:rgb(0.00%,0.00%,0.00%);stroke-dasharray:none;stroke-width:0.30"/>
		<path d="M 438.30,242.40 442.00,240.80 438.30,239.20" style="fill:none;stroke:rgb(0.00%,0.00%,0.00%);stroke-dasharray:none;stroke-width:0.30"/>
		<line x1="465.00" y1="257.90" x2="465.00" y2="251.50" style="fill:none;stroke:rgb(0.00%,0.00%,0.00%);stroke-dasharray:none;stroke-width:0.30"/>
		<text x="467.67" y="250.40" transform="rotate(-90.00,467.67,250.40)" font-family="Helvetica" font-size="5.35" fill="rgb(0.00%,0.00%,0.00%)" text-anchor="start">AL</text>
		<line x1="475.70" y1="257.90" x2="475.70" y2="251.50" style="fill:none;stroke:rgb(0.00%,0.00%,0.00%);stroke-dasharray:none;stroke-width:0.30"/>
		<text x="478.37" y="250.40" transform="rotate(-90.00,478.37,250.40)" font-family="Helvetica" font-size="5.35" fill="rgb(0.00%,0.00%,0.00%)" text-anchor="start">AD</text>
		<line x1="498.20" y1="230.10" x2="491.80" y2="230.10" style="fill:none;stroke:rgb(0.00%,0.00%,0.00%);stroke-dasharray:none;stroke-width:0.30"/>
		<text x="490.70" y="232.77" transform="rotate(0.00,490.70,232.77)" font-family="Helvetica" font-size="5.35" fill="rgb(0.00%,0.00%,0.00%)" text-anchor="end" >Q</text>
		<line x1="431.90" y1="219.40" x2="438.30" y2="219.40" style="fill:none;stroke:rgb(0.00%,0.00%,0.00%);stroke-dasharray:none;stroke-width:0.30"/>
		<text x="439.40" y="222.07" transform="rotate(0.00,439.40,222.07)" font-family="Helvetica" font-size="5.35" fill="rgb(0.00%,0.00%,0.00%)" text-anchor="start">D</text>
		<line x1="431.90" y1="230.10" x2="438.30" y2="230.10" style="fill:none;stroke:rgb(0.00%,0.00%,0.00%);stroke-dasharray:none;stroke-width:0.30"/>
		<text x="439.40" y="232.77" transform="rotate(0.00,439.40,232.77)" font-family="Helvetica" font-size="5.35" fill="rgb(0.00%,0.00%,0.00%)" text-anchor="start">EN</text>
		<line x1="431.90" y1="240.80" x2="438.30" y2="240.80" style="fill:none;stroke:rgb(0.00%,0.00%,0.00%);stroke-dasharray:none;stroke-width:0.30"/>
		<text x="465.00" y="207.60" transform="rotate(0.00,465.00,207.60)" font-family="Helvetica" font-size="6.42" fill="rgb(0.00%,0.00%,0.00%)" text-anchor="middle" >Qff</text>
		<path d="M 126.60,326.40 122.90,330.10 115.40,330.10 115.40,322.70 122.90,322.70 126.60,326.40" style="fill:none;stroke:rgb(0.00%,0.00%,0.00%);stroke-dasharray:none;stroke-width:0.30"/>
		<text x="113.20" y="329.61" transform="rotate(0.00,113.20,329.61)" font-family="Helvetica" font-size="6.42" fill="rgb(0.00%,0.00%,0.00%)" text-anchor="end" >en</text>
		<path d="M 126.60,288.90 122.90,292.60 115.40,292.60 115.40,285.20 122.90,285.20 126.60,288.90" style="fill:none;stroke:rgb(0.00%,0.00%,0.00%);stroke-dasharray:none;stroke-width:0.30"/>
		<text x="113.20" y="292.11" transform="rotate(0.00,113.20,292.11)" font-family="Helvetica" font-size="6.42" fill="rgb(0.00%,0.00%,0.00%)" text-anchor="end" >ALn</text>
		<path d="M 126.60,272.90 122.90,276.60 115.40,276.60 115.40,269.20 122.90,269.20 126.60,272.90" style="fill:none;stroke:rgb(0.00%,0.00%,0.00%);stroke-dasharray:none;stroke-width:0.30"/>
		<text x="113.20" y="276.11" transform="rotate(0.00,113.20,276.11)" font-family="Helvetica" font-size="6.42" fill="rgb(0.00%,0.00%,0.00%)" text-anchor="end" >ADn</text>
		<circle cx="193.90" cy="272.90" r="2.15" style="fill:rgb(79.69%,79.69%,79.69%);stroke:none;stroke-dasharray:none;stroke-width:none"/>
		<polygon points=" 175.80,272.90 175.80,266.50 191.80,272.90 175.80,279.30 175.80,272.90" style="fill:rgb(79.69%,79.69%,79.69%);stroke:none;stroke-dasharray:none;stroke-width:none"/>
		<circle cx="193.90" cy="272.90" r="2.15" style="fill:none;stroke:rgb(0.00%,0.00%,0.00%);stroke-dasharray:none;stroke-width:0.30"/>
		<path d="M 175.80,272.90 175.80,266.50 191.80,272.90 175.80,279.30 175.80,272.90" style="fill:none;stroke:rgb(0.00%,0.00%,0.00%);stroke-dasharray:none;stroke-width:0.30"/>
		<line x1="202.50" y1="272.90" x2="196.10" y2="272.90" style="fill:none;stroke:rgb(0.00%,0.00%,0.00%);stroke-dasharray:none;stroke-width:0.30"/>
		<line x1="169.40" y1="272.90" x2="175.80" y2="272.90" style="fill:none;stroke:rgb(0.00%,0.00%,0.00%);stroke-dasharray:none;stroke-width:0.30"/>
		<circle cx="193.90" cy="256.90" r="2.15" style="fill:rgb(79.69%,79.69%,79.69%);stroke:none;stroke-dasharray:none;stroke-width:none"/>
		<polygon points=" 175.80,256.90 175.80,250.50 191.80,256.90 175.80,263.30 175.80,256.90" style="fill:rgb(79.69%,79.69%,79.69%);stroke:none;stroke-dasharray:none;stroke-width:none"/>
		<circle cx="193.90" cy="256.90" r="2.15" style="fill:none;stroke:rgb(0.00%,0.00%,0.00%);stroke-dasharray:none;stroke-width:0.30"/>
		<path d="M 175.80,256.90 175.80,250.50 191.80,256.90 175.80,263.30 175.80,256.90" style="fill:none;stroke:rgb(0.00%,0.00%,0.00%);stroke-dasharray:none;stroke-width:0.30"/>
		<line x1="202.50" y1="256.90" x2="196.10" y2="256.90" style="fill:none;stroke:rgb(0.00%,0.00%,0.00%);stroke-dasharray:none;stroke-width:0.30"/>
		<line x1="169.40" y1="256.90" x2="175.80" y2="256.90" style="fill:none;stroke:rgb(0.00%,0.00%,0.00%);stroke-dasharray:none;stroke-width:0.30"/>
		<path d="M 126.60,385.20 122.90,388.90 115.40,388.90 115.40,381.50 122.90,381.50 126.60,385.20" style="fill:none;stroke:rgb(0.00%,0.00%,0.00%);stroke-dasharray:none;stroke-width:0.30"/>
		<text x="113.20" y="388.41" transform="rotate(0.00,113.20,388.41)" font-family="Helvetica" font-size="6.42" fill="rgb(0.00%,0.00%,0.00%)" text-anchor="end" >SLn</text>
		<path d="M 126.60,347.70 122.90,351.40 115.40,351.40 115.40,344.00 122.90,344.00 126.60,347.70" style="fill:none;stroke:rgb(0.00%,0.00%,0.00%);stroke-dasharray:none;stroke-width:0.30"/>
		<text x="113.20" y="350.91" transform="rotate(0.00,113.20,350.91)" font-family="Helvetica" font-size="6.42" fill="rgb(0.00%,0.00%,0.00%)" text-anchor="end" >SD</text>
		<polygon points=" 258.10,305.00 258.10,313.00 271.50,313.00 271.50,313.00 272.90,312.90 274.20,312.50 275.50,311.90 276.60,311.10 277.60,310.10 278.40,309.00 279.00,307.70 279.40,306.40 279.50,305.00 279.40,303.60 279.00,302.30 278.40,301.00 277.60,299.90 276.60,298.90 275.50,298.10 274.20,297.50 272.90,297.10 271.50,297.00 258.10,297.00 258.10,305.00" style="fill:rgb(79.69%,79.69%,79.69%);stroke:none;stroke-dasharray:none;stroke-width:none"/>
		<path d="M 258.10,305.00 258.10,313.00 271.50,313.00" style="fill:none;stroke:rgb(0.00%,0.00%,0.00%);stroke-dasharray:none;stroke-width:0.30"/>
		<path d="M271.50,313.00 A8.00,8.00,0,0,0,271.50,297.00" style="fill:none;stroke:rgb(0.00%,0.00%,0.00%);stroke-dasharray:none;stroke-width:0.30"/>
		<path d="M 271.50,297.00 258.10,297.00 258.10,305.00" style="fill:none;stroke:rgb(0.00%,0.00%,0.00%);stroke-dasharray:none;stroke-width:0.30"/>
		<line x1="285.90" y1="305.00" x2="279.50" y2="305.00" style="fill:none;stroke:rgb(0.00%,0.00%,0.00%);stroke-dasharray:none;stroke-width:0.30"/>
		<line x1="251.70" y1="299.60" x2="258.10" y2="299.60" style="fill:none;stroke:rgb(0.00%,0.00%,0.00%);stroke-dasharray:none;stroke-width:0.30"/>
		<line x1="251.70" y1="310.30" x2="258.10" y2="310.30" style="fill:none;stroke:rgb(0.00%,0.00%,0.00%);stroke-dasharray:none;stroke-width:0.30"/>
		<circle cx="221.70" cy="310.30" r="2.15" style="fill:rgb(79.69%,79.69%,79.69%);stroke:none;stroke-dasharray:none;stroke-width:none"/>
		<polygon points=" 203.60,310.30 203.60,303.90 219.60,310.30 203.60,316.70 203.60,310.30" style="fill:rgb(79.69%,79.69%,79.69%);stroke:none;stroke-dasharray:none;stroke-width:none"/>
		<circle cx="221.70" cy="310.30" r="2.15" style="fill:none;stroke:rgb(0.00%,0.00%,0.00%);stroke-dasharray:none;stroke-width:0.30"/>
		<path d="M 203.60,310.30 203.60,303.90 219.60,310.30 203.60,316.70 203.60,310.30" style="fill:none;stroke:rgb(0.00%,0.00%,0.00%);stroke-dasharray:none;stroke-width:0.30"/>
		<line x1="230.30" y1="310.30" x2="223.90" y2="310.30" style="fill:none;stroke:rgb(0.00%,0.00%,0.00%);stroke-dasharray:none;stroke-width:0.30"/>
		<line x1="197.20" y1="310.30" x2="203.60" y2="310.30" style="fill:none;stroke:rgb(0.00%,0.00%,0.00%);stroke-dasharray:none;stroke-width:0.30"/>
		<polygon points=" 259.20,224.80 259.20,232.80 272.60,232.80 272.60,232.80 274.00,232.70 275.30,232.30 276.60,231.70 277.70,230.90 278.70,229.90 279.50,228.80 280.10,227.50 280.50,226.20 280.60,224.80 280.50,223.40 280.10,222.10 279.50,220.80 278.70,219.70 277.70,218.70 276.60,217.90 275.30,217.30 274.00,216.90 272.60,216.80 259.20,216.80 259.20,224.80" style="fill:rgb(79.69%,79.69%,79.69%);stroke:none;stroke-dasharray:none;stroke-width:none"/>
		<path d="M 259.20,224.80 259.20,232.80 272.60,232.80" style="fill:none;stroke:rgb(0.00%,0.00%,0.00%);stroke-dasharray:none;stroke-width:0.30"/>
		<path d="M272.60,232.80 A8.00,8.00,0,0,0,272.60,216.80" style="fill:none;stroke:rgb(0.00%,0.00%,0.00%);stroke-dasharray:none;stroke-width:0.30"/>
		<path d="M 272.60,216.80 259.20,216.80 259.20,224.80" style="fill:none;stroke:rgb(0.00%,0.00%,0.00%);stroke-dasharray:none;stroke-width:0.30"/>
		<line x1="287.00" y1="224.80" x2="280.60" y2="224.80" style="fill:none;stroke:rgb(0.00%,0.00%,0.00%);stroke-dasharray:none;stroke-width:0.30"/>
		<line x1="252.80" y1="230.10" x2="259.20" y2="230.10" style="fill:none;stroke:rgb(0.00%,0.00%,0.00%);stroke-dasharray:none;stroke-width:0.30"/>
		<line x1="252.80" y1="219.40" x2="259.20" y2="219.40" style="fill:none;stroke:rgb(0.00%,0.00%,0.00%);stroke-dasharray:none;stroke-width:0.30"/>
		<polygon points=" 203.60,214.10 203.60,222.10 217.00,222.10 217.00,222.10 218.40,222.00 219.70,221.60 221.00,221.00 222.10,220.20 223.10,219.20 223.90,218.10 224.50,216.80 224.90,215.50 225.00,214.10 224.90,212.70 224.50,211.40 223.90,210.10 223.10,209.00 222.10,208.00 221.00,207.20 219.70,206.60 218.40,206.20 217.00,206.10 203.60,206.10 203.60,214.10" style="fill:rgb(79.69%,79.69%,79.69%);stroke:none;stroke-dasharray:none;stroke-width:none"/>
		<path d="M 203.60,214.10 203.60,222.10 217.00,222.10" style="fill:none;stroke:rgb(0.00%,0.00%,0.00%);stroke-dasharray:none;stroke-width:0.30"/>
		<path d="M217.00,222.10 A8.00,8.00,0,0,0,217.00,206.10" style="fill:none;stroke:rgb(0.00%,0.00%,0.00%);stroke-dasharray:none;stroke-width:0.30"/>
		<path d="M 217.00,206.10 203.60,206.10 203.60,214.10" style="fill:none;stroke:rgb(0.00%,0.00%,0.00%);stroke-dasharray:none;stroke-width:0.30"/>
		<line x1="231.40" y1="214.10" x2="225.00" y2="214.10" style="fill:none;stroke:rgb(0.00%,0.00%,0.00%);stroke-dasharray:none;stroke-width:0.30"/>
		<line x1="197.20" y1="208.70" x2="203.60" y2="208.70" style="fill:none;stroke:rgb(0.00%,0.00%,0.00%);stroke-dasharray:none;stroke-width:0.30"/>
		<line x1="197.20" y1="219.40" x2="203.60" y2="219.40" style="fill:none;stroke:rgb(0.00%,0.00%,0.00%);stroke-dasharray:none;stroke-width:0.30"/>
		<path d="M 476.80,310.30 508.90,310.30 508.90,374.50 530.20,374.50" style="fill:none;stroke:rgb(0.00%,0.00%,0.00%);stroke-dasharray:none;stroke-width:0.30"/>
		<line x1="543.10" y1="374.50" x2="559.70" y2="374.50" style="fill:none;stroke:rgb(0.00%,0.00%,0.00%);stroke-dasharray:none;stroke-width:0.30"/>
		<path d="M 126.60,347.70 137.30,347.70 137.30,353.10 171.00,353.10" style="fill:none;stroke:rgb(0.00%,0.00%,0.00%);stroke-dasharray:none;stroke-width:0.30"/>
		<line x1="183.80" y1="353.10" x2="262.90" y2="353.10" style="fill:none;stroke:rgb(0.00%,0.00%,0.00%);stroke-dasharray:none;stroke-width:0.30"/>
		<line x1="126.60" y1="385.20" x2="171.00" y2="385.20" style="fill:none;stroke:rgb(0.00%,0.00%,0.00%);stroke-dasharray:none;stroke-width:0.30"/>
		<path d="M 183.80,385.20 194.50,385.20 194.50,401.20 290.70,401.20 290.70,379.80" style="fill:none;stroke:rgb(0.00%,0.00%,0.00%);stroke-dasharray:none;stroke-width:0.30"/>
		<line x1="194.50" y1="385.20" x2="205.20" y2="385.20" style="fill:none;stroke:rgb(0.00%,0.00%,0.00%);stroke-dasharray:none;stroke-width:0.30"/>
		<rect x="193.75" y="384.45" width="1.50" height="1.50" style="fill:rgb(0.00%,0.00%,0.00%);stroke:rgb(0.00%,0.00%,0.00%);stroke-dasharray:none;stroke-width:0.30"/>
		<path d="M 231.40,214.10 242.10,214.10 242.10,219.40 252.80,219.40" style="fill:none;stroke:rgb(0.00%,0.00%,0.00%);stroke-dasharray:none;stroke-width:0.30"/>
		<line x1="230.30" y1="310.30" x2="251.70" y2="310.30" style="fill:none;stroke:rgb(0.00%,0.00%,0.00%);stroke-dasharray:none;stroke-width:0.30"/>
		<path d="M 285.90,305.00 296.60,305.00 296.60,315.70 307.30,315.70" style="fill:none;stroke:rgb(0.00%,0.00%,0.00%);stroke-dasharray:none;stroke-width:0.30"/>
		<path d="M 238.30,385.20 249.00,385.20 249.00,390.50 280.00,390.50 280.00,379.80" style="fill:none;stroke:rgb(0.00%,0.00%,0.00%);stroke-dasharray:none;stroke-width:0.30"/>
		<path d="M 334.00,358.40 399.80,358.40 399.80,219.40 431.90,219.40" style="fill:none;stroke:rgb(0.00%,0.00%,0.00%);stroke-dasharray:none;stroke-width:0.30"/>
		<line x1="399.80" y1="305.00" x2="431.90" y2="305.00" style="fill:none;stroke:rgb(0.00%,0.00%,0.00%);stroke-dasharray:none;stroke-width:0.30"/>
		<rect x="399.05" y="304.25" width="1.50" height="1.50" style="fill:rgb(0.00%,0.00%,0.00%);stroke:rgb(0.00%,0.00%,0.00%);stroke-dasharray:none;stroke-width:0.30"/>
		<line x1="307.80" y1="358.40" x2="321.20" y2="358.40" style="fill:none;stroke:rgb(0.00%,0.00%,0.00%);stroke-dasharray:none;stroke-width:0.30"/>
		<path d="M 313.20,224.80 389.10,224.80 389.10,315.70 431.90,315.70" style="fill:none;stroke:rgb(0.00%,0.00%,0.00%);stroke-dasharray:none;stroke-width:0.30"/>
		<line x1="287.00" y1="224.80" x2="300.40" y2="224.80" style="fill:none;stroke:rgb(0.00%,0.00%,0.00%);stroke-dasharray:none;stroke-width:0.30"/>
		<line x1="126.60" y1="272.90" x2="169.40" y2="272.90" style="fill:none;stroke:rgb(0.00%,0.00%,0.00%);stroke-dasharray:none;stroke-width:0.30"/>
		<path d="M 367.70,321.00 373.10,321.00 373.10,331.70 410.50,331.70 410.50,230.10 431.90,230.10" style="fill:none;stroke:rgb(0.00%,0.00%,0.00%);stroke-dasharray:none;stroke-width:0.30"/>
		<line x1="341.50" y1="321.00" x2="354.90" y2="321.00" style="fill:none;stroke:rgb(0.00%,0.00%,0.00%);stroke-dasharray:none;stroke-width:0.30"/>
		<path d="M 202.50,272.90 378.40,272.90 378.40,278.20 475.70,278.20 475.70,257.90" style="fill:none;stroke:rgb(0.00%,0.00%,0.00%);stroke-dasharray:none;stroke-width:0.30"/>
		<path d="M 202.50,256.90 421.20,256.90 421.20,267.50 465.00,267.50 465.00,257.90" style="fill:none;stroke:rgb(0.00%,0.00%,0.00%);stroke-dasharray:none;stroke-width:0.30"/>
		<line x1="593.90" y1="379.80" x2="607.20" y2="379.80" style="fill:none;stroke:rgb(0.00%,0.00%,0.00%);stroke-dasharray:none;stroke-width:0.30"/>
		<path d="M 169.40,256.90 158.70,256.90 158.70,294.30 171.00,294.30" style="fill:none;stroke:rgb(0.00%,0.00%,0.00%);stroke-dasharray:none;stroke-width:0.30"/>
		<line x1="126.60" y1="288.90" x2="158.70" y2="288.90" style="fill:none;stroke:rgb(0.00%,0.00%,0.00%);stroke-dasharray:none;stroke-width:0.30"/>
		<rect x="157.95" y="288.15" width="1.50" height="1.50" style="fill:rgb(0.00%,0.00%,0.00%);stroke:rgb(0.00%,0.00%,0.00%);stroke-dasharray:none;stroke-width:0.30"/>
		<path d="M 183.80,294.30 241.00,294.30 241.00,299.60 251.70,299.60" style="fill:none;stroke:rgb(0.00%,0.00%,0.00%);stroke-dasharray:none;stroke-width:0.30"/>
		<path d="M 126.60,208.70 158.70,208.70 158.70,240.80 431.90,240.80" style="fill:none;stroke:rgb(0.00%,0.00%,0.00%);stroke-dasharray:none;stroke-width:0.30"/>
		<line x1="158.70" y1="208.70" x2="171.00" y2="208.70" style="fill:none;stroke:rgb(0.00%,0.00%,0.00%);stroke-dasharray:none;stroke-width:0.30"/>
		<rect x="157.95" y="207.95" width="1.50" height="1.50" style="fill:rgb(0.00%,0.00%,0.00%);stroke:rgb(0.00%,0.00%,0.00%);stroke-dasharray:none;stroke-width:0.30"/>
		<line x1="183.80" y1="208.70" x2="197.20" y2="208.70" style="fill:none;stroke:rgb(0.00%,0.00%,0.00%);stroke-dasharray:none;stroke-width:0.30"/>
		<line x1="126.60" y1="363.80" x2="171.00" y2="363.80" style="fill:none;stroke:rgb(0.00%,0.00%,0.00%);stroke-dasharray:none;stroke-width:0.30"/>
		<line x1="183.80" y1="363.80" x2="262.90" y2="363.80" style="fill:none;stroke:rgb(0.00%,0.00%,0.00%);stroke-dasharray:none;stroke-width:0.30"/>
		<path d="M 171.00,219.40 137.30,219.40 137.30,326.40 171.00,326.40" style="fill:none;stroke:rgb(0.00%,0.00%,0.00%);stroke-dasharray:none;stroke-width:0.30"/>
		<line x1="126.60" y1="326.40" x2="137.30" y2="326.40" style="fill:none;stroke:rgb(0.00%,0.00%,0.00%);stroke-dasharray:none;stroke-width:0.30"/>
		<rect x="136.55" y="325.65" width="1.50" height="1.50" style="fill:rgb(0.00%,0.00%,0.00%);stroke:rgb(0.00%,0.00%,0.00%);stroke-dasharray:none;stroke-width:0.30"/>
		<line x1="183.80" y1="326.40" x2="307.30" y2="326.40" style="fill:none;stroke:rgb(0.00%,0.00%,0.00%);stroke-dasharray:none;stroke-width:0.30"/>
		<line x1="183.80" y1="219.40" x2="197.20" y2="219.40" style="fill:none;stroke:rgb(0.00%,0.00%,0.00%);stroke-dasharray:none;stroke-width:0.30"/>
		<path d="M 171.00,230.10 148.00,230.10 148.00,411.90 530.20,411.90" style="fill:none;stroke:rgb(0.00%,0.00%,0.00%);stroke-dasharray:none;stroke-width:0.30"/>
		<line x1="126.60" y1="305.00" x2="148.00" y2="305.00" style="fill:none;stroke:rgb(0.00%,0.00%,0.00%);stroke-dasharray:none;stroke-width:0.30"/>
		<line x1="148.00" y1="310.30" x2="171.00" y2="310.30" style="fill:none;stroke:rgb(0.00%,0.00%,0.00%);stroke-dasharray:none;stroke-width:0.30"/>
		<rect x="147.25" y="304.25" width="1.50" height="1.50" style="fill:rgb(0.00%,0.00%,0.00%);stroke:rgb(0.00%,0.00%,0.00%);stroke-dasharray:none;stroke-width:0.30"/>
		<rect x="147.25" y="309.55" width="1.50" height="1.50" style="fill:rgb(0.00%,0.00%,0.00%);stroke:rgb(0.00%,0.00%,0.00%);stroke-dasharray:none;stroke-width:0.30"/>
		<path d="M 543.10,411.90 576.80,411.90 576.80,401.20" style="fill:none;stroke:rgb(0.00%,0.00%,0.00%);stroke-dasharray:none;stroke-width:0.30"/>
		<line x1="183.80" y1="310.30" x2="197.20" y2="310.30" style="fill:none;stroke:rgb(0.00%,0.00%,0.00%);stroke-dasharray:none;stroke-width:0.30"/>
		<line x1="183.80" y1="230.10" x2="252.80" y2="230.10" style="fill:none;stroke:rgb(0.00%,0.00%,0.00%);stroke-dasharray:none;stroke-width:0.30"/>
		<line x1="662.30" y1="379.80" x2="675.70" y2="379.80" style="fill:none;stroke:rgb(0.00%,0.00%,0.00%);stroke-dasharray:none;stroke-width:0.30"/>
		<line x1="636.10" y1="379.80" x2="649.50" y2="379.80" style="fill:none;stroke:rgb(0.00%,0.00%,0.00%);stroke-dasharray:none;stroke-width:0.30"/>
		<path d="M 498.20,230.10 519.60,230.10 519.60,385.20 530.20,385.20" style="fill:none;stroke:rgb(0.00%,0.00%,0.00%);stroke-dasharray:none;stroke-width:0.30"/>
		<line x1="543.10" y1="385.20" x2="559.70" y2="385.20" style="fill:none;stroke:rgb(0.00%,0.00%,0.00%);stroke-dasharray:none;stroke-width:0.30"/>
	</g>
</svg>
